<svg data-v-423bf9ae="" xmlns="http://www.w3.org/2000/svg" viewBox="0 0 162.5751172037122 60" class="font"><!----><!----><!----><g data-v-423bf9ae="" id="4af9dfb7-406b-4973-8f08-10d41721eb65" fill="black" transform="matrix(4.291845798492432,0,0,4.291845798492432,-0.000002206262252002489,-8.068672180175781)"><path d="M7.94 9.23L7.94 9.23L7.98 6.13L7.98 6.13Q7.97 6.03 7.88 6.03L7.88 6.03L7.88 6.03Q7.78 6.03 7.71 6.13L7.71 6.13L7.71 6.13Q7.03 7.84 5.99 10.84L5.99 10.84L5.99 10.84Q4.94 13.85 4.89 14L4.89 14L4.89 14Q4.84 14.15 4.62 14.37L4.62 14.37L4.62 14.37Q4.40 14.59 4.23 14.59L4.23 14.59L4.23 14.59Q4.06 14.59 4.06 14.32L4.06 14.32L4.06 14.32Q4.05 14.22 4.02 13.39L4.02 13.39L4.02 13.39Q3.99 12.56 3.93 11.69L3.93 11.69L3.93 11.69Q3.88 10.82 3.79 9.89L3.79 9.89L3.79 9.89Q3.70 8.96 3.53 8.36L3.53 8.36L3.53 8.36Q3.36 7.77 3.15 7.77L3.15 7.77L3.15 7.77Q2.79 7.77 1.09 13.51L1.09 13.51L1.09 13.51Q0.87 14.29 0.85 14.32L0.85 14.32L0.85 14.32Q0.80 14.50 0.59 14.64L0.59 14.64L0.59 14.64Q0.39 14.77 0.21 14.77L0.21 14.77L0.21 14.77Q0.06 14.77 0.06 14.55L0.06 14.55L0.06 14.55Q0.15 11.66 0.15 9.77L0.15 9.77L0.15 9.77Q0.15 6.20 0.04 4.97L0.04 4.97L0 4.51L0 4.51Q0 4.41 0.20 4.22L0.20 4.22L0.20 4.22Q0.39 4.03 0.56 4.03L0.56 4.03L0.56 4.03Q0.73 4.03 0.73 4.34L0.73 4.34L0.73 4.44L0.76 5.61L0.76 6.19L0.76 6.19Q0.76 11.52 0.69 12.64L0.69 12.64L0.69 12.64Q0.69 12.89 0.73 12.89L0.73 12.89L0.73 12.89Q0.77 12.89 1.90 9.47L1.90 9.47L1.90 9.47Q3.02 6.05 3.15 5.63L3.15 5.63L3.15 5.63Q3.28 5.21 3.47 4.99L3.47 4.99L3.47 4.99Q3.67 4.77 3.89 4.77L3.89 4.77L3.89 4.77Q4.21 4.77 4.42 6.61L4.42 6.61L4.42 6.61Q4.63 8.44 4.75 10.28L4.75 10.28L4.75 10.28Q4.87 12.11 4.94 12.11L4.94 12.11L4.94 12.11Q5.00 12.11 5.31 11.31L5.31 11.31L5.31 11.31Q5.61 10.51 6.01 9.38L6.01 9.38L6.01 9.38Q6.41 8.25 6.80 7.11L6.80 7.11L6.80 7.11Q7.77 4.40 7.87 4.45L7.87 4.45L7.87 4.45Q7.84 4.44 7.95 4.34L7.95 4.34L7.95 4.34Q8.29 4.06 8.50 4.03L8.50 4.03L8.50 4.03Q8.81 4.07 8.81 4.41L8.81 4.41L8.81 4.77L8.81 4.77Q8.81 5.82 8.85 6.45L8.85 6.45L8.85 6.45Q9.27 13.44 11.97 13.44L11.97 13.44L11.97 13.44Q12.19 13.44 12.38 13.31L12.38 13.31L12.38 13.31Q12.56 13.19 12.62 13.19L12.62 13.19L12.62 13.19Q12.68 13.19 12.77 13.27L12.77 13.27L12.77 13.27Q12.85 13.36 12.85 13.45L12.85 13.45L12.85 13.45Q12.85 13.82 12.09 14.31L12.09 14.31L12.09 14.31Q11.33 14.81 10.60 14.81L10.60 14.81L10.60 14.81Q7.94 14.81 7.94 9.23ZM13.85 14.20L13.85 14.20L13.85 14.20Q13.90 14.17 14.34 13.87L14.34 13.87L14.34 13.87Q14.77 13.58 15.18 13.32L15.18 13.32L15.18 13.32Q15.58 13.06 16.09 12.83L16.09 12.83L16.09 12.83Q16.59 12.60 16.83 12.60L16.83 12.60L16.83 12.60Q17.07 12.60 17.18 12.74L17.18 12.74L17.18 12.74Q17.30 12.94 17.49 13.34L17.49 13.34L17.49 13.34Q17.67 13.75 17.67 13.83L17.67 13.83L17.67 13.83Q17.67 13.92 17.65 13.96L17.65 13.96L17.65 13.96Q17.61 14.07 17.57 14.10L17.57 14.10L17.57 14.10Q17.40 14.18 17.32 14.22L17.32 14.22L17.32 14.22Q17.25 14.27 16.56 14.69L16.56 14.69L16.56 14.69Q14.66 15.86 14.46 15.86L14.46 15.86L14.46 15.86Q14.18 15.86 13.90 15.28L13.90 15.28L13.90 15.28Q13.62 14.70 13.62 14.51L13.62 14.51L13.62 14.51Q13.62 14.32 13.85 14.20ZM15.58 9.32L15.58 9.32L15.72 12.32L15.72 12.32Q15.72 12.59 15.55 12.82L15.55 12.82L15.55 12.82Q15.39 13.05 15.11 13.05L15.11 13.05L15.11 13.05Q14.98 13.05 14.98 12.85L14.98 12.85L14.98 12.85Q14.98 10.72 14.88 8.96L14.88 8.96L14.88 8.96Q14.77 7.20 14.77 4.89L14.77 4.89L14.77 4.89Q14.77 4.66 14.87 4.61L14.87 4.61L14.87 4.61Q15.15 4.42 15.27 4.42L15.27 4.42L15.27 4.42Q15.39 4.42 15.41 4.45L15.41 4.45L15.41 4.45Q15.47 4.55 15.47 5.31L15.47 5.31L15.47 5.31Q15.47 6.08 15.58 9.32ZM12.87 5.24L13.10 3.82L13.10 3.82Q13.12 3.72 13.89 3.32L13.89 3.32L13.89 3.32Q16.02 2.20 16.48 2.20L16.48 2.20L16.48 2.20Q16.62 2.20 16.64 2.25L16.64 2.25L16.64 2.25Q16.66 2.31 16.76 2.53L16.76 2.53L16.76 2.53Q16.86 2.74 16.91 2.92L16.91 2.92L16.91 2.92Q16.97 3.09 16.97 3.23L16.97 3.23L16.97 3.23Q16.97 3.37 16.77 3.47L16.77 3.47L16.77 3.47Q16.73 3.50 16.21 3.73L16.21 3.73L16.21 3.73Q15.69 3.96 15.16 4.21L15.16 4.21L15.16 4.21Q13.80 4.83 13.45 5.10L13.45 5.10L13.45 5.10Q13.10 5.38 12.98 5.38L12.98 5.38L12.98 5.38Q12.87 5.38 12.87 5.24L12.87 5.24ZM20.38 12.05L20.40 11.70L20.38 9.94L20.38 9.94Q20.38 8.09 20.47 7.15L20.47 7.15L20.47 7.15Q20.55 6.22 20.55 6.16L20.55 6.16L20.55 6.16Q20.71 5.67 21.14 5.67L21.14 5.67L21.14 5.67Q21.24 5.67 21.24 5.78L21.24 5.78L21.24 5.78Q21.24 5.80 21.21 6.01L21.21 6.01L21.21 6.01Q20.96 7.97 20.96 11.19L20.96 11.19L20.96 11.19Q20.96 11.58 21.07 12.98L21.07 12.98L21.07 12.98Q21.18 14.38 21.17 14.61L21.17 14.61L21.17 14.61Q21.15 14.84 20.94 14.84L20.94 14.84L20.94 14.84Q20.50 14.80 19.96 14.14L19.96 14.14L19.96 14.14Q19.42 13.48 18.96 12.47L18.96 12.47L18.96 12.47Q18.49 11.47 18.19 10.12L18.19 10.12L18.19 10.12Q17.88 8.78 17.88 7.49L17.88 7.49L17.88 7.49Q17.88 6.20 18.41 4.80L18.41 4.80L18.41 4.80Q18.72 4.02 19.14 3.37L19.14 3.37L19.14 3.37Q19.57 2.73 20.27 2.30L20.27 2.30L20.27 2.30Q20.97 1.88 21.81 1.88L21.81 1.88L21.81 1.88Q23.37 1.88 24.34 3.23L24.34 3.23L24.34 3.23Q25.31 4.58 25.31 6.30L25.31 6.30L25.31 6.30Q25.31 8.32 24.01 9.34L24.01 9.34L24.01 9.34Q23.31 9.90 22.32 10.01L22.32 10.01L22.32 10.01Q22.22 10.04 22.22 10.12L22.22 10.12L22.22 10.12Q22.22 10.40 22.74 11.14L22.74 11.14L22.74 11.14Q23.27 11.87 24.16 12.59L24.16 12.59L24.16 12.59Q25.05 13.31 25.84 13.38L25.84 13.38L25.84 13.38Q26.36 13.38 26.74 12.98L26.74 12.98L26.74 12.98Q26.88 12.81 26.96 12.81L26.96 12.81L26.96 12.81Q27.22 12.96 27.22 13.13L27.22 13.13L27.22 13.13Q27.22 13.31 26.87 13.68L26.87 13.68L26.87 13.68Q26.52 14.06 26.19 14.29L26.19 14.29L26.19 14.29Q25.45 14.84 24.52 14.84L24.52 14.84L24.52 14.84Q23.59 14.84 22.93 14.28L22.93 14.28L22.93 14.28Q22.26 13.72 21.91 12.81L21.91 12.81L21.91 12.81Q21.22 11.03 21.22 9.06L21.22 9.06L21.22 9.06Q21.22 8.85 21.38 8.85L21.38 8.85L21.38 8.85Q21.43 8.86 21.57 8.97L21.57 8.97L21.57 8.97Q21.98 9.30 22.53 9.35L22.53 9.35L22.53 9.35Q23.16 9.35 23.48 8.81L23.48 8.81L23.48 8.81Q23.81 8.27 23.81 7.38L23.81 7.38L23.81 7.38Q23.81 6.50 23.49 5.56L23.49 5.56L23.49 5.56Q23.17 4.63 22.44 3.93L22.44 3.93L22.44 3.93Q21.71 3.23 20.76 3.23L20.76 3.23L20.76 3.23Q20.02 3.23 19.27 4.34L19.27 4.34L19.27 4.34Q18.52 5.45 18.52 6.99L18.52 6.99L18.52 6.99Q18.52 8.16 18.98 9.60L18.98 9.60L18.98 9.60Q19.45 11.03 20.33 12.17L20.33 12.17L20.34 12.17L20.34 12.17Q20.38 12.17 20.38 12.05L20.38 12.05ZM35.07 3.70L35.07 3.70Q35.67 3.70 35.97 3.96L35.97 3.96L35.97 3.96Q36.26 4.23 36.26 4.65L36.26 4.65L36.26 4.65Q36.26 5.08 35.91 5.39L35.91 5.39L35.91 5.39Q35.56 5.70 35.35 5.70L35.35 5.70L35.35 5.70Q35.14 5.70 35.13 5.50L35.13 5.50L35.13 5.50Q35.10 5.17 34.69 4.87L34.69 4.87L34.69 4.87Q34.27 4.58 33.84 4.58L33.84 4.58L33.84 4.58Q32.73 4.58 31.58 5.63L31.58 5.63L31.58 5.63Q30.44 6.68 29.75 8.04L29.75 8.04L29.75 8.04Q29.06 9.39 29.06 10.33L29.06 10.33L29.06 10.33Q29.06 11.27 29.46 11.86L29.46 11.86L29.46 11.86Q29.86 12.46 30.63 12.46L30.63 12.46L30.63 12.46Q31.86 12.46 33.31 10.29L33.31 10.29L33.31 10.29Q33.98 9.30 34.66 7.38L34.66 7.38L34.66 7.38Q34.92 6.69 34.93 6.68L34.93 6.68L34.93 6.68Q35.04 6.38 35.29 6.38L35.29 6.38L35.29 6.38Q35.42 6.38 35.50 6.46L35.50 6.46L35.50 6.46Q35.57 6.54 35.57 6.64L35.57 6.64L35.57 6.64Q35.57 6.75 35.53 6.87L35.53 6.87L35.53 6.87Q35.13 8.36 35.13 9.71L35.13 9.71L35.13 9.71Q35.13 11.06 35.59 11.96L35.59 11.96L35.59 11.96Q36.05 12.85 36.82 12.85L36.82 12.85L36.82 12.85Q37.21 12.85 37.52 12.60L37.52 12.60L37.52 12.60Q37.62 12.52 37.72 12.52L37.72 12.52L37.72 12.52Q37.88 12.52 37.88 12.67L37.88 12.67L37.88 12.67Q37.88 13.44 36.97 14.10L36.97 14.10L36.97 14.10Q36.06 14.77 35.17 14.77L35.17 14.77L35.17 14.77Q33.73 14.77 33.73 12.78L33.73 12.78L33.73 12.78Q33.73 11.98 33.93 10.99L33.93 10.99L33.93 10.99Q34.13 10.00 34.13 9.96L34.13 9.96L34.13 9.96Q34.13 9.93 34.08 9.93L34.08 9.93L34.08 9.93Q34.02 9.93 33.95 10.05L33.95 10.05L33.95 10.05Q33.15 12.04 31.77 13.39L31.77 13.39L31.77 13.39Q30.38 14.74 29.22 14.74L29.22 14.74L29.22 14.74Q28.06 14.74 27.55 13.85L27.55 13.85L27.55 13.85Q27.20 13.24 27.20 12.36L27.20 12.36L27.20 12.36Q27.20 10.63 28.39 8.59L28.39 8.59L28.39 8.59Q29.57 6.55 31.44 5.12L31.44 5.12L31.44 5.12Q33.31 3.70 35.07 3.70L35.07 3.70Z"></path></g><!----><!----></svg>